HIERARCHY
ROOT joint_0
{
	OFFSET 0.000000 0.000000 0.000000
	CHANNELS 6 Xposition Yposition Zposition Zrotation Yrotation Xrotation 
	JOINT joint_1
	{
		OFFSET 6.590088 -1.122192 114.019043
		CHANNELS 3 Zrotation Yrotation Xrotation
		JOINT joint_2
		{
			OFFSET -5.956055 -0.820435 104.151001
			CHANNELS 3 Zrotation Yrotation Xrotation
			JOINT joint_3
			{
				OFFSET -7.343506 -1.103027 103.942993
				CHANNELS 3 Zrotation Yrotation Xrotation
				JOINT joint_4
				{
					OFFSET 3.109131 -2.857056 147.715942
					CHANNELS 3 Zrotation Yrotation Xrotation
					JOINT joint_5
					{
						OFFSET 28.592285 -2.852295 87.703979
						CHANNELS 3 Zrotation Yrotation Xrotation
						End Site
						{
							OFFSET 0.000000 0.000000 0.000000
						}
					}
				}
				JOINT joint_6
				{
					OFFSET -0.332520 -33.687378 82.401978
					CHANNELS 3 Zrotation Yrotation Xrotation
					JOINT joint_7
					{
						OFFSET -7.397461 -168.719177 -22.750977
						CHANNELS 3 Zrotation Yrotation Xrotation
						JOINT joint_8
						{
							OFFSET 17.065918 -24.903137 -272.721069
							CHANNELS 3 Zrotation Yrotation Xrotation
							JOINT joint_9
							{
								OFFSET 33.311279 -37.031616 -278.192993
								CHANNELS 3 Zrotation Yrotation Xrotation
								End Site
								{
									OFFSET 0.000000 0.000000 0.000000
								}
							}
						}
					}
				}
				JOINT joint_10
				{
					OFFSET 3.914307 30.461670 83.552979
					CHANNELS 3 Zrotation Yrotation Xrotation
					JOINT joint_11
					{
						OFFSET 15.543701 166.845459 -30.963013
						CHANNELS 3 Zrotation Yrotation Xrotation
						JOINT joint_12
						{
							OFFSET 35.734863 35.017700 -269.786011
							CHANNELS 3 Zrotation Yrotation Xrotation
							JOINT joint_13
							{
								OFFSET 70.506592 13.977783 -273.320007
								CHANNELS 3 Zrotation Yrotation Xrotation
								End Site
								{
									OFFSET 0.000000 0.000000 0.000000
								}
							}
						}
					}
				}
			}
		}
	}
	JOINT joint_14
	{
		OFFSET -0.314697 -95.093994 -116.004028
		CHANNELS 3 Zrotation Yrotation Xrotation
		JOINT joint_15
		{
			OFFSET -22.490723 2.017883 -455.510986
			CHANNELS 3 Zrotation Yrotation Xrotation
			JOINT joint_16
			{
				OFFSET -46.427490 7.144104 -496.360985
				CHANNELS 3 Zrotation Yrotation Xrotation
				JOINT joint_17
				{
					OFFSET 209.055420 -37.122803 -85.191002
					CHANNELS 3 Zrotation Yrotation Xrotation
					End Site
					{
						OFFSET 0.000000 0.000000 0.000000
					}
				}
			}
		}
	}
	JOINT joint_18
	{
		OFFSET 5.652832 94.642578 -116.244019
		CHANNELS 3 Zrotation Yrotation Xrotation
		JOINT joint_19
		{
			OFFSET -12.379883 -7.332642 -455.843994
			CHANNELS 3 Zrotation Yrotation Xrotation
			JOINT joint_20
			{
				OFFSET -45.227051 -8.172241 -496.457985
				CHANNELS 3 Zrotation Yrotation Xrotation
				JOINT joint_21
				{
					OFFSET 210.522949 -11.530396 -88.809004
					CHANNELS 3 Zrotation Yrotation Xrotation
					End Site
					{
						OFFSET 0.000000 0.000000 0.000000
					}
				}
			}
		}
	}
}
MOTION
Frames: 13
Frame Time: 0.016667
-2623.373779 927.520325 1199.777954 8.242311 2.459158 2.145705 -0.479228 1.712838 -2.819067 -0.238623 -0.181273 0.744621 -0.306795 0.339102 -0.294396 0.244326 -6.511349 -1.500300 0.000000 0.000000 0.000000 0.457877 11.061193 -0.907322 0.620016 10.767123 6.501228 2.611706 -20.579802 5.693640 0.000000 0.000000 0.000000 4.873912 4.556868 5.459425 -0.981186 4.378837 -2.611383 -2.704637 -7.724989 -7.282856 0.000000 0.000000 0.000000 -4.183044 -2.262664 -1.438339 -4.150506 5.310420 -2.252025 -4.321136 3.596462 -1.102456 0.000000 0.000000 0.000000 -3.136301 -10.311893 -1.882903 -3.666447 17.158386 -2.037122 -3.566329 3.956232 -1.248173 0.000000 0.000000 0.000000 
-2615.434814 925.743225 1204.097046 9.068678 2.567185 2.152558 -0.453037 2.552883 -2.770411 -0.102518 -0.293709 0.677283 -0.154775 0.534269 -0.277037 0.244408 -5.913704 -1.392863 0.000000 0.000000 0.000000 0.351237 9.854340 -1.274635 0.324663 9.593484 6.333028 2.508389 -20.471138 5.588096 0.000000 0.000000 0.000000 4.564382 3.762157 5.314224 -0.895337 3.624222 -2.531367 -2.710601 -9.013034 -6.730491 0.000000 0.000000 0.000000 -3.742753 -3.001502 -1.469845 -3.775276 7.261197 -2.439975 -4.030198 4.550673 -0.804840 0.000000 0.000000 0.000000 -3.475503 -15.148365 -0.780914 -4.410734 25.265275 -4.314287 -4.612946 6.927758 -1.466202 0.000000 0.000000 0.000000 
-2607.307373 924.423096 1207.640991 9.374549 2.680714 1.895962 -0.356811 3.367866 -2.352170 0.157561 -0.510189 0.441109 0.149173 0.682708 -0.279646 0.244106 -5.424811 -1.299408 0.000000 0.000000 0.000000 0.325548 8.591165 -1.392041 0.085738 8.373051 5.801063 2.372092 -19.876133 5.385866 0.000000 0.000000 0.000000 4.275939 3.000570 5.029026 -0.814031 2.863243 -2.286982 -2.718244 -10.007074 -6.269472 0.000000 0.000000 0.000000 -3.098115 -3.694306 -1.230232 -3.213051 9.107173 -2.634654 -3.554130 5.459886 -0.441375 0.000000 0.000000 0.000000 -3.485306 -19.210830 0.358883 -4.935299 31.108552 -5.833576 -5.487960 9.793199 -1.610465 0.000000 0.000000 0.000000 
-2598.725342 923.752686 1210.062012 9.354464 3.037385 1.633234 -0.219363 3.664550 -2.136934 0.416188 -0.665555 0.329469 0.440411 0.755662 -0.302592 0.260837 -5.137795 -1.290259 0.000000 0.000000 0.000000 0.484991 7.307434 -1.007362 -0.099578 7.182667 4.599964 2.212967 -18.654838 5.291252 0.000000 0.000000 0.000000 4.094607 2.336108 4.558196 -0.739449 2.119929 -1.665041 -2.760825 -10.535164 -6.138459 0.000000 0.000000 0.000000 -2.318030 -4.548619 -1.009151 -2.538388 10.793586 -2.798560 -2.938981 6.074387 -0.078625 0.000000 0.000000 0.000000 -3.200121 -22.604037 1.100701 -5.150423 34.490772 -6.211585 -5.821492 10.654315 -1.669958 0.000000 0.000000 0.000000 
-2589.954590 923.540161 1211.707031 9.166423 3.562177 1.381378 -0.030765 3.570358 -2.109519 0.652197 -0.728523 0.326184 0.690783 0.783352 -0.332464 0.286907 -4.948559 -1.326764 0.000000 0.000000 0.000000 0.699704 5.949283 -0.277950 -0.208392 5.948525 2.951029 2.042006 -16.906792 5.155355 0.000000 0.000000 0.000000 3.938521 1.699589 3.977779 -0.660815 1.373587 -0.890536 -2.781151 -10.758236 -6.079947 0.000000 0.000000 0.000000 -1.456194 -5.539373 -0.832262 -1.804872 12.409685 -2.922598 -2.231023 6.481673 0.280107 0.000000 0.000000 0.000000 -2.761643 -25.752873 1.585915 -5.182058 36.399349 -5.892116 -5.789400 10.239332 -1.674061 0.000000 0.000000 0.000000 
-2580.797119 923.839722 1212.641968 8.897145 3.947018 1.137551 0.191236 3.494062 -2.122642 0.889094 -0.731809 0.365883 0.927707 0.801884 -0.357700 0.319222 -4.841630 -1.395410 0.000000 0.000000 0.000000 0.692126 4.760859 0.382811 -0.249504 4.842117 1.541408 1.890545 -15.695412 4.514869 0.000000 0.000000 0.000000 3.742755 1.172884 3.505018 -0.595949 0.773516 -0.278595 -2.777627 -10.958345 -5.953128 0.000000 0.000000 0.000000 -0.673478 -6.340355 -0.740082 -1.120894 13.995736 -2.907734 -1.519200 6.683705 0.600299 0.000000 0.000000 0.000000 -2.311097 -28.193803 1.879261 -5.011799 36.461047 -5.001720 -5.410685 9.483778 -1.576523 0.000000 0.000000 0.000000 
-2571.317871 924.738281 1212.999023 8.475768 4.011741 0.855167 0.451921 3.737582 -2.051290 1.178502 -0.733131 0.391970 1.211792 0.843219 -0.372199 0.364801 -4.870827 -1.520790 0.000000 0.000000 0.000000 0.300078 3.782622 0.788717 -0.274579 3.858233 0.808892 1.722642 -15.702473 2.681851 0.000000 0.000000 0.000000 3.471850 0.777751 3.213609 -0.537100 0.374403 -0.002296 -2.728976 -11.258308 -5.625618 0.000000 0.000000 0.000000 -0.047742 -6.792179 -0.696932 -0.505030 15.575102 -2.726099 -0.813661 6.752736 0.891945 0.000000 0.000000 0.000000 -1.699495 -29.395040 1.975126 -4.278675 33.714101 -3.152790 -4.178799 8.493487 -1.169899 0.000000 0.000000 0.000000 
-2561.452637 926.148987 1212.646973 7.808257 3.843736 0.483247 0.778730 4.190850 -1.840897 1.528786 -0.785959 0.367893 1.561721 0.887638 -0.387062 0.419702 -4.979522 -1.688657 0.000000 0.000000 0.000000 -0.298601 2.939338 1.152221 -0.319094 2.974562 0.368786 1.521248 -16.261949 0.319549 0.000000 0.000000 0.000000 3.156588 0.494609 3.046565 -0.478761 0.127068 0.105468 -2.655657 -11.550609 -5.224847 0.000000 0.000000 0.000000 0.523994 -6.968029 -0.591906 0.117142 17.113042 -2.491876 -0.066141 6.680084 1.173261 0.000000 0.000000 0.000000 -0.952133 -29.462801 2.024053 -3.180776 28.408739 -0.807998 -2.708792 8.292420 -0.618117 0.000000 0.000000 0.000000 
-2550.807617 927.871765 1211.254028 7.099506 3.617195 0.107313 1.110380 4.479482 -1.600187 1.858982 -0.826936 0.324352 1.892901 0.888249 -0.404255 0.460986 -4.984453 -1.813659 0.000000 0.000000 0.000000 -0.820070 2.340518 1.471255 -0.346143 2.346868 -0.126968 1.379054 -16.427774 -1.114035 0.000000 0.000000 0.000000 2.843897 0.345160 3.036165 -0.434442 0.026963 0.221050 -2.617516 -11.768570 -4.999752 0.000000 0.000000 0.000000 1.098205 -6.960805 -0.455061 0.727474 18.563712 -2.284365 0.678000 6.312305 1.397372 0.000000 0.000000 0.000000 -0.686118 -29.134642 2.259149 -2.765544 22.538408 0.785638 -2.440919 10.270487 -0.412242 0.000000 0.000000 0.000000 
-2538.571045 929.673157 1208.729980 6.788436 3.588423 -0.054168 1.387032 3.998126 -1.696463 2.051627 -0.620719 0.435960 2.048148 0.781674 -0.431692 0.470463 -4.809674 -1.836181 0.000000 0.000000 0.000000 -1.190467 2.213159 1.617647 -0.313491 2.196564 -0.661034 1.382715 -15.731479 -0.753040 0.000000 0.000000 0.000000 2.488316 0.389136 3.284324 -0.419621 0.145440 0.390315 -2.656160 -11.881020 -5.106633 0.000000 0.000000 0.000000 1.602185 -6.904706 -0.492846 1.222048 19.874274 -2.099645 1.322299 5.503800 1.498239 0.000000 0.000000 0.000000 -1.803874 -28.860194 2.713484 -4.135861 16.624502 1.374753 -4.263666 14.639423 -0.909070 0.000000 0.000000 0.000000 
-2525.554932 931.786682 1205.165039 6.408206 3.489222 -0.230619 1.671146 3.384709 -1.742240 2.235380 -0.414918 0.514423 2.196454 0.622310 -0.458584 0.462317 -4.537268 -1.799773 0.000000 0.000000 0.000000 -1.476404 2.362854 1.594447 -0.252911 2.319126 -1.119771 1.461717 -14.684802 0.487402 0.000000 0.000000 0.000000 2.130882 0.568969 3.698993 -0.416307 0.415895 0.554845 -2.726945 -11.921388 -5.385558 0.000000 0.000000 0.000000 2.109813 -6.646023 -0.486682 1.706721 21.099499 -1.953291 1.948687 4.409695 1.536985 0.000000 0.000000 0.000000 -3.985113 -28.078961 3.585305 -6.934985 10.196203 1.934993 -7.221187 20.448844 -1.806105 0.000000 0.000000 0.000000 
-2513.800293 934.704651 1200.501953 5.444199 3.057616 -0.684023 1.932413 3.391469 -1.258848 2.477443 -0.477572 0.346634 2.457593 0.538370 -0.443274 0.457022 -4.219849 -1.758173 0.000000 0.000000 0.000000 -1.609889 2.296829 1.499177 -0.197009 2.244846 -1.603409 1.498559 -13.760959 1.275759 0.000000 0.000000 0.000000 1.944948 0.730883 4.015455 -0.384702 0.629553 0.739581 -2.757876 -11.916349 -5.611225 0.000000 0.000000 0.000000 2.698427 -6.179166 -0.226591 2.281001 22.389866 -1.826802 2.627555 3.181094 1.568502 0.000000 0.000000 0.000000 -5.860792 -26.986777 4.646969 -9.542618 5.095142 2.924547 -9.619110 25.684853 -2.557965 0.000000 0.000000 0.000000 
-2504.289062 938.638367 1194.583984 4.229891 2.458387 -1.229379 2.021311 3.777803 -0.559820 2.611045 -0.630222 0.103726 2.635227 0.577397 -0.353921 0.460748 -3.839421 -1.724920 0.000000 0.000000 0.000000 -1.565782 1.763642 1.377148 -0.146123 1.726314 -2.076712 1.430764 -13.089522 0.854355 0.000000 0.000000 0.000000 2.043863 0.808895 4.163727 -0.314742 0.694219 0.964179 -2.735853 -11.882399 -5.748689 0.000000 0.000000 0.000000 3.262911 -5.721607 0.064017 2.837759 23.799741 -1.688213 3.264383 1.709075 1.536481 0.000000 0.000000 0.000000 -6.771207 -26.290778 5.221434 -11.068610 2.192556 3.942938 -10.911528 30.347881 -2.967779 0.000000 0.000000 0.000000 
